HIERARCHY
ROOT Hips
{
	OFFSET 0.000000 0.000000 0.000000 
	CHANNELS 6 Xposition Yposition Zposition Zrotation Yrotation Xrotation
	JOINT LeftUpLeg
	{
		OFFSET 1.363060 -1.794630 0.839290 
		CHANNELS 3 Zrotation Yrotation Xrotation
		JOINT LeftLeg
		{
			OFFSET 2.448110 -6.726130 0.000000 
			CHANNELS 3 Zrotation Yrotation Xrotation
			JOINT LeftFoot
			{
				OFFSET 2.562200 -7.039590 0.000000 
				CHANNELS 3 Zrotation Yrotation Xrotation
				JOINT LeftToeBase
				{
					OFFSET 0.157640 -0.433110 2.322550 
					CHANNELS 3 Zrotation Yrotation Xrotation
					End Site
					{
						OFFSET 0.000000 0.000000 0.000000 
					}
				}
			}
		}
	}
	JOINT RightUpLeg
	{
		OFFSET -1.305520 -1.794630 0.839290 
		CHANNELS 3 Zrotation Yrotation Xrotation
		JOINT RightLeg
		{
			OFFSET -2.542530 -6.985550 0.000000 
			CHANNELS 3 Zrotation Yrotation Xrotation
			JOINT RightFoot
			{
				OFFSET -2.568260 -7.056230 0.000000 
				CHANNELS 3 Zrotation Yrotation Xrotation
				JOINT RightToeBase
				{
					OFFSET -0.164730 -0.452590 2.363150 
					CHANNELS 3 Zrotation Yrotation Xrotation
					End Site
					{
						OFFSET 0.000000 0.000000 0.000000 
					}
				}
			}
		}
	}
	JOINT Spine
	{
		OFFSET 0.028270 2.035590 -0.193380 
		CHANNELS 3 Zrotation Yrotation Xrotation
		JOINT Spine1
		{
			OFFSET 0.056720 2.048850 -0.042750 
			CHANNELS 3 Zrotation Yrotation Xrotation
			JOINT Neck1
			{
				OFFSET -0.054170 1.746240 0.172020 
				CHANNELS 3 Zrotation Yrotation Xrotation
				JOINT Head
				{
					OFFSET 0.104070 1.761360 -0.123970 
					CHANNELS 3 Zrotation Yrotation Xrotation
					End Site
					{
						OFFSET 0.000000 0.000000 0.000000 
					}
				}
			}
			JOINT LeftArm
			{
				OFFSET 3.362410 1.200890 -0.311210 
				CHANNELS 3 Zrotation Yrotation Xrotation
				JOINT LeftForeArm
				{
					OFFSET 4.983000 -0.000000 -0.000000 
					CHANNELS 3 Zrotation Yrotation Xrotation
					JOINT LeftHand
					{
						OFFSET 3.483560 -0.000000 -0.000000 
						CHANNELS 3 Zrotation Yrotation Xrotation
						JOINT LeftHandIndex1
						{
							OFFSET 0.715260 -0.000000 -0.000000 
							CHANNELS 3 Zrotation Yrotation Xrotation
							End Site
							{
								OFFSET 0.000000 0.000000 0.000000 
							}
						}
					}
				}
			}
			JOINT RightArm
			{
				OFFSET -3.136600 1.374050 -0.404650 
				CHANNELS 3 Zrotation Yrotation Xrotation
				JOINT RightForeArm
				{
					OFFSET -5.241900 -0.000000 -0.000000 
					CHANNELS 3 Zrotation Yrotation Xrotation
					JOINT RightHand
					{
						OFFSET -3.444170 -0.000000 -0.000000 
						CHANNELS 3 Zrotation Yrotation Xrotation
						JOINT RightHandIndex1
						{
							OFFSET -0.622530 -0.000000 -0.000000 
							CHANNELS 3 Zrotation Yrotation Xrotation
							End Site
							{
								OFFSET 0.000000 0.000000 0.000000 
							}
						}
					}
				}
			}
		}
	}
}
MOTION
Frames: 12
Frame Time: 0.041667
2.746475 18.195844 5.754273 165.043878 9.215754 -179.081756 -7.904800 14.029405 -32.753247 6.732877 15.937393 41.241986 -2.843868 14.628835 28.922422 2.092400 -9.056000 -25.970600 12.538260 -12.665125 -21.825780 -5.417272 -16.174826 45.546997 -1.395712 -4.433554 12.748317 -0.022400 -0.965900 2.655000 1.790455 -7.181404 8.817063 0.601986 8.257183 -0.568530 5.107677 -16.173705 5.831922 11.674600 -5.989300 -2.651400 -81.110554 -41.458033 42.479709 49.962588 -45.346786 -35.370839 -3.781993 -2.930162 4.094091 -7.125000 0.000000 0.000000 69.383036 31.961684 15.586949 -2.860198 14.758606 -4.491642 -1.406963 -10.254687 34.629592 7.125000 0.000000 0.000000 
3.232599 18.235583 5.438421 164.324500 11.135518 -179.310183 -8.734731 14.239751 -34.252188 6.679658 16.105080 41.222765 -2.701727 14.469389 29.606695 2.621600 -10.055800 -29.157500 12.315828 -12.075098 -20.089404 -4.591557 -15.509945 43.303267 -1.144421 -5.203400 14.664847 -0.025700 -1.035500 2.846600 1.546974 -7.698971 8.300531 0.088584 8.702542 -0.390146 5.148602 -16.446168 5.936030 11.809200 -6.154300 -2.516100 -77.402626 -45.175604 40.459191 46.676948 -42.981508 -32.539979 -3.920817 -3.372172 1.364426 -7.125000 0.000000 0.000000 68.778467 31.513923 11.286906 -1.761941 13.532169 -4.116621 -1.525718 -10.245814 36.174367 7.125000 0.000000 0.000000 
3.719366 18.277508 5.109580 164.016047 12.892791 -179.357220 -9.024888 14.210478 -35.531058 6.451930 16.158104 40.584857 -2.274300 14.027388 31.038459 3.515200 -11.485800 -33.936200 12.351432 -11.942780 -18.610414 -3.606313 -14.733188 40.979547 -2.237622 -3.747931 17.340024 -0.180800 -2.738900 7.552600 1.161431 -8.074801 7.897141 0.158721 9.045490 -0.311417 5.295079 -17.251010 5.953344 12.345800 -6.475300 -2.301800 -73.612571 -48.317560 37.968600 43.817507 -40.610549 -30.051123 -4.018322 -3.864156 -1.352059 -7.125000 0.000000 0.000000 67.591004 30.525650 7.257751 -0.927141 12.608227 -3.826412 -1.626338 -10.282838 37.421308 7.125000 0.000000 0.000000 
4.200218 18.309659 4.769164 163.636723 14.649117 -179.391467 -9.041471 13.721026 -36.502626 5.956380 16.127028 39.615568 -1.449731 12.811000 32.649272 3.907600 -12.036400 -35.860700 12.274685 -11.749943 -17.011579 -2.887409 -13.925803 38.376018 -0.823592 -6.739169 19.346487 -0.002700 0.333400 -0.916000 0.896258 -8.282244 7.697387 0.524017 9.238139 -0.319569 5.443877 -17.862666 5.964417 12.838700 -6.712500 -2.071700 -69.463561 -50.842805 34.877622 41.240785 -38.162612 -27.795611 -4.135975 -4.362601 -3.996309 -7.125000 0.000000 0.000000 66.082073 28.944041 5.219044 -0.548445 12.337849 -3.645805 -1.399668 -10.299362 37.285571 7.125000 0.000000 0.000000 
4.699717 18.360329 4.418846 163.191039 16.399613 -179.370057 -8.852764 12.947596 -37.200923 5.251563 15.980029 38.268898 -0.429835 11.250329 34.541291 3.927800 -12.063700 -35.957700 11.831955 -11.050813 -15.245102 -1.939604 -12.984386 35.588781 -1.078616 -7.024955 22.423862 -0.024400 1.007500 -2.769500 0.765818 -8.460072 7.599967 0.715590 9.390923 -0.352632 5.579222 -17.617417 6.225873 12.996900 -5.265800 -1.497800 -64.522298 -52.708761 31.285841 38.840602 -35.604772 -25.668551 -4.300499 -4.891753 -6.674924 -7.125000 0.000000 0.000000 64.923533 27.281429 4.127666 -0.427161 12.408756 -3.547598 -0.966698 -10.303874 36.750235 7.125000 0.000000 0.000000 
5.201146 18.395438 4.062740 163.134842 18.043061 -179.199934 -8.152707 11.890147 -37.664330 4.423493 15.768194 36.577038 0.747894 9.484710 36.945930 4.251500 -12.487700 -37.480000 11.700954 -10.902320 -13.737035 -1.541826 -12.182011 32.679201 1.403449 -12.393462 24.502529 -1.424000 7.546200 -21.343900 0.681394 -8.577794 7.527780 0.535576 9.473464 -0.468391 5.664954 -18.032403 6.249817 13.127200 -5.438600 -1.303700 -59.253938 -53.598971 27.526326 36.753013 -33.236434 -23.828762 -4.410083 -5.420301 -8.834149 -7.125000 0.000000 0.000000 64.085693 25.583732 3.585228 -0.368206 12.641917 -3.489885 -0.453954 -10.323209 35.867310 7.125000 0.000000 0.000000 
5.715692 18.446880 3.700847 163.526903 19.429107 -178.953792 -6.887981 10.547549 -37.636744 3.390242 15.376997 34.527661 2.217388 7.025299 39.623607 4.638000 -12.964200 -39.234500 11.708873 -9.504577 -11.878620 -0.105664 -11.032923 30.113220 -1.678855 -7.667078 28.916650 -0.239000 3.145900 -8.685300 0.746482 -8.585757 7.620204 0.261843 9.412356 -0.706703 5.750002 -18.404228 6.267519 13.229300 -5.596100 -1.088100 -53.874781 -53.416956 23.555791 34.913865 -31.243306 -22.342165 -4.484363 -5.919208 -10.262411 -7.125000 0.000000 0.000000 63.144988 23.761581 4.116658 -0.392099 13.097807 -3.469252 0.209332 -10.385292 34.046738 7.125000 0.000000 0.000000 
6.224708 18.473372 3.329438 163.706499 20.798279 -178.832412 -5.601313 8.969092 -37.398867 2.253772 14.944228 32.495334 3.654656 4.348174 41.988161 4.802400 -13.157800 -39.961900 11.504120 -8.126399 -9.977266 0.862213 -9.983404 27.515418 -2.593859 -6.880993 32.617865 -0.328100 3.681400 -10.181900 0.874016 -8.435161 7.763506 0.467923 9.297863 -0.948346 5.938513 -19.048084 6.287972 13.906300 -5.799100 -0.634600 -48.603423 -52.246286 19.437319 33.169288 -29.739229 -21.181584 -4.449961 -6.460217 -11.218335 -7.125000 0.000000 0.000000 61.973188 21.856314 5.227647 -0.469517 13.664731 -3.460166 0.820933 -10.468314 31.771690 7.125000 0.000000 0.000000 
6.736167 18.490991 2.952113 163.772510 21.990110 -178.750352 -4.406300 7.309853 -37.073178 1.165680 14.482577 30.469623 4.782701 2.191694 43.854498 5.208700 -13.615100 -41.716800 11.185619 -6.680836 -8.240557 1.749138 -8.944403 25.076512 -3.530062 -6.033526 36.458908 -0.472100 4.406800 -12.224100 1.335310 -8.228247 8.268430 0.501020 9.104051 -1.193111 5.955145 -19.502235 6.207200 13.782900 -5.988900 -0.571200 -43.980051 -50.766009 15.272305 31.541027 -28.593958 -20.291590 -4.039679 -7.108732 -12.133813 -7.125000 0.000000 0.000000 60.384134 19.910041 7.069085 -0.654315 14.379061 -3.452762 1.398495 -10.567671 28.930091 7.125000 0.000000 0.000000 
7.269747 18.493692 2.574016 163.962200 23.242088 -178.653684 -3.300260 6.162617 -36.773161 0.182312 13.950468 28.489658 5.760823 0.327205 45.345733 5.857800 -14.289100 -44.408200 10.966454 -4.716795 -6.418419 2.667071 -7.936826 22.833432 -4.675447 -4.641112 40.811115 -0.153000 2.520800 -6.947300 1.789137 -8.053342 8.829853 0.770458 9.008461 -1.344640 6.110166 -20.467668 6.125177 13.894400 -6.365600 -0.239900 -39.932044 -49.030922 11.149569 30.124380 -27.896169 -19.867699 -3.156248 -7.966239 -14.435939 -7.125000 0.000000 0.000000 58.803814 17.943691 9.118688 -0.893784 15.134820 -3.453291 1.966818 -10.684345 26.236924 7.125000 0.000000 0.000000 
7.789308 18.495106 2.192961 163.928191 24.422771 -178.554216 -2.330778 4.864255 -36.441012 -0.861064 13.396667 26.672122 6.824198 -2.037231 47.084236 5.809400 -14.241100 -44.211900 10.328096 -2.655482 -4.874730 3.409707 -7.021935 20.717629 -5.684524 -3.814522 46.093143 -0.064600 -1.639300 4.509700 2.392233 -7.809365 9.444098 0.772435 8.886451 -1.632625 6.193491 -21.094382 6.060555 13.907700 -6.639700 -0.068600 -36.573631 -46.957959 7.661150 29.053292 -27.855450 -20.014628 -1.882064 -8.887397 -18.580907 -7.125000 0.000000 0.000000 57.328191 15.796676 11.133275 -1.130652 15.896204 -3.455957 2.522538 -10.779357 23.975523 7.125000 0.000000 0.000000 
8.337163 18.547320 1.807020 163.627408 25.609032 -178.502495 -1.428783 3.390264 -35.905739 -1.753332 12.888583 25.059773 7.611812 -3.810679 48.329793 5.882200 -14.313200 -44.507000 9.273487 -0.718286 -3.844801 3.736930 -6.510631 18.919429 -6.289631 -4.909027 51.520548 -0.861700 -5.919500 16.550900 2.983234 -7.542271 10.021586 0.812582 8.794628 -1.945606 6.294675 -21.969671 5.943147 14.025900 -6.994600 0.057300 -33.844311 -44.829390 4.759698 28.218703 -28.127516 -20.462348 -0.478718 -9.522680 -23.732737 -7.125000 0.000000 0.000000 55.748219 13.461822 13.093956 -1.370656 16.674693 -3.469259 3.055697 -10.910629 22.168017 7.125000 0.000000 0.000000 
